<svg width="32" height="32" viewBox="0 0 32 32" fill="none" xmlns="http://www.w3.org/2000/svg">
<path d="M26.6665 5.33325H5.33317C3.8665 5.33325 2.67984 6.53325 2.67984 7.99992L2.6665 23.9999C2.6665 25.4666 3.8665 26.6666 5.33317 26.6666H26.6665C28.1332 26.6666 29.3332 25.4666 29.3332 23.9999V7.99992C29.3332 6.53325 28.1332 5.33325 26.6665 5.33325ZM26.1332 10.9999L16.7065 16.8933C16.2798 17.1599 15.7198 17.1599 15.2932 16.8933L5.8665 10.9999C5.73281 10.9249 5.61573 10.8235 5.52236 10.7019C5.42898 10.5802 5.36125 10.441 5.32327 10.2924C5.28529 10.1439 5.27784 9.98917 5.30138 9.83766C5.32492 9.68616 5.37895 9.541 5.46021 9.41099C5.54147 9.28097 5.64827 9.16879 5.77414 9.08125C5.90001 8.9937 6.04233 8.9326 6.1925 8.90165C6.34266 8.8707 6.49755 8.87054 6.64778 8.90118C6.79801 8.93182 6.94045 8.99263 7.0665 9.07992L15.9998 14.6666L24.9332 9.07992C25.0592 8.99263 25.2017 8.93182 25.3519 8.90118C25.5021 8.87054 25.657 8.8707 25.8072 8.90165C25.9573 8.9326 26.0997 8.9937 26.2255 9.08125C26.3514 9.16879 26.4582 9.28097 26.5395 9.41099C26.6207 9.541 26.6748 9.68616 26.6983 9.83766C26.7218 9.98917 26.7144 10.1439 26.6764 10.2924C26.6384 10.441 26.5707 10.5802 26.4773 10.7019C26.3839 10.8235 26.2669 10.9249 26.1332 10.9999Z" fill="#1E1E1E"/>
</svg>
