<svg width="100" height="54" viewBox="0 0 100 54" fill="none" xmlns="http://www.w3.org/2000/svg">
<rect width="100" height="54" fill="#1E1E1E"/>
<g clip-path="url(#clip0_0_1)">
<path d="M58.8774 18.6682C58.2121 88.4547 66.8607 11.7355 92.6819 6.18095C102.62 4.00925 101.497 11.4014 95.0936 13.406C94.5115 13.5731 94.0957 13.6148 93.763 13.4895C93.4304 13.3642 93.3472 12.9884 93.472 12.3619C93.6383 11.5684 93.6799 10.8167 93.472 10.1902C89.4387 -5.76337 73.0146 48.8213 56.2162 50.826C55.7589 50.8677 55.3015 50.8677 54.8857 50.826C53.6799 50.7007 52.6404 50.116 51.7672 49.0301C51.1019 48.1113 50.5198 46.8584 50.0624 45.1462C49.7713 43.9768 49.605 42.6403 49.4803 41.1786C49.3971 39.6751 49.3555 38.0881 49.4803 36.3758C49.0645 37.0441 48.6487 37.6705 48.1913 38.297C47.7755 38.9652 47.3181 39.6334 46.8607 40.2598C43.867 44.4779 41.1643 47.7355 38.6695 50.0325C36.0083 52.413 33.6383 53.7076 31.6424 53.9582C31.185 54.0417 30.7692 54.0417 30.3119 53.9582C29.2724 53.8747 28.4408 53.4988 27.7755 52.9141C28.2329 52.7888 28.6902 52.6636 29.1476 52.5383C44.657 47.4431 58.9189 10.232 58.8774 18.6682Z" fill="white"/>
<path d="M26.9439 44.1021C27.1933 43.0163 27.4428 41.8469 27.817 40.594C28.2744 38.9653 28.7734 37.253 29.3139 35.4989C43.368 -11.4849 6.27858 0.0835831 5.44698 20.8817C5.36382 22.8864 5.6133 24.5987 6.19542 26.0604C6.77754 27.5221 7.65072 28.6079 8.89813 29.2762C10.1455 29.9444 11.7671 29.9444 13.763 29.1926C14.1788 29.0256 14.4283 29.2762 14.5114 29.9444C14.8025 33.0349 11.7671 35.7912 8.85655 35.833C7.23492 35.833 5.8212 35.4989 4.65696 34.8307C3.49272 34.1207 2.53638 33.2019 1.82952 32.0325C1.08108 30.8214 0.623697 29.485 0.291056 27.898C-3.87126e-06 26.3527 -0.083164 24.724 0.0415762 23.0534C0.166316 21.3411 0.540537 19.6288 1.08108 17.9165C1.62162 16.1625 2.41164 14.5337 3.36798 13.0302C8.48232 4.8446 18.9605 -0.83521 28.6486 0.0835839C30.2703 0.250637 31.8503 0.626507 33.3888 1.21119C39.9168 3.84228 41.9958 8.31096 42.079 14.9096C42.079 23.1787 39.1268 43.3922 29.2308 44.1021C28.4823 44.1439 27.7339 44.1439 26.9854 44.1021H26.9439Z" fill="white"/>
</g>
<defs>
<clipPath id="clip0_0_1">
<rect width="100" height="54" fill="white"/>
</clipPath>
</defs>
</svg>
